<svg id="Layer_1" xmlns="http://www.w3.org/2000/svg" viewBox="0 0 293.94 109.71"><style>.st0{fill:#089999}.st1{fill:#fff}.st2{font-family:&apos;Arial-BoldMT&apos;}.st3{font-size:26.2345px}.st4{font-family:&apos;ArialNarrow&apos;}.st5{font-size:18.2098px}</style><path class="st0" d="M47.18 109.41c-12.48-1.84-23.29-7.36-31.91-16.28C7.3 84.88 2.24 74.46.36 62.46c-.49-3.12-.48-11.91.01-15.18 2.35-15.55 10.5-28.77 23.17-37.6C40.11-1.86 61.8-3.18 79.73 6.26c4.92 2.59 8.66 5.29 12.56 9.05l2.83 2.73h198.82v73.82H95.1l-2.42 2.36c-8.43 8.21-18.52 13.25-30.17 15.07-3.26.5-12.22.57-15.33.12"/><path class="st1" d="M61.37 99.49c.68-.16 1.73-.35 2.33-.43 1.84-.23 8.28-2.64 11.62-4.35 4.33-2.22 8.01-4.98 11.66-8.76 8.13-8.42 12.49-19.23 12.49-31 0-6.9-1.35-12.94-4.32-19.23C89.29 23.27 77.68 14 64.3 11.11c-3.35-.72-4.65-.84-9.88-.86-6.64-.03-9.08.32-14.5 2.1C28.9 15.98 19.4 24.2 14.2 34.63c-3.51 7.05-4.64 11.91-4.65 20.16-.01 6.23.4 9.15 2.03 14.17 2.71 8.39 8.03 15.94 15.13 21.48 5.49 4.28 19.51 7.82 17.97 7.17-12.62-5.31-19.8-18.3-18.39-33.29 1.42-15.17 8.73-29.71 24.29-48.36 2.86-3.42 4.46-5.02 4.6-4.59.08.24.38 1.37.67 2.51.6 2.36 2.68 7.05 4.17 9.43 3.57 5.69 4.16 6.53 10.62 15.08 10.9 14.43 13.54 20.51 13.54 31.26 0 4.84-.33 7.07-1.57 10.55-1.33 3.74-3.06 6.5-5.92 9.44-4.65 4.77-10.39 8.1-15.46 8.96-.93.16-2.38.47-3.21.69-1.31.35-1.41.43-.77.61.76.21 2.01.09 4.12-.41"/><text transform="matrix(1 0 0 1.0354 113.035 55.26)" class="st1 st2 st3">W</text><text transform="matrix(1 0 0 1.0354 135.754 55.26)" class="st1 st2 st3">ASH</text><text transform="matrix(1 0 0 1.0354 196.645 55.26)" class="st1 st2 st3">Cluster</text><text transform="matrix(1 0 0 1.0354 105.319 74.05)" class="st1 st4 st5">W</text><text transform="matrix(1 0 0 1.0354 127.171 74.05)" class="st1 st4 st5">ater Sanitation Hygiene</text><path class="st1" d="M77.54 76.92c2.28-2.24 2.47-9.4.41-15.01-1.09-2.96-5.3-10-5.98-10-.22 0 .21 1.27 1.13 3.37.37.85 1.2 3.75 1.9 6.7.13.53.26 4.05.29 7.83s.07 7.12.09 7.43c.05.84 1.13.68 2.16-.32"/></svg>